<svg id="svg" version="1.1" xmlns="http://www.w3.org/2000/svg" xmlns:xlink="http://www.w3.org/1999/xlink" width="400" height="372.32734153263954" viewBox="0, 0, 400,372.32734153263954"><g id="svgg"><path id="path0" d="M115.667 0.114 C 115.667 0.200,115.938 0.715,116.269 1.260 C 116.600 1.804,117.135 2.737,117.458 3.333 C 117.781 3.929,118.166 4.604,118.314 4.834 C 118.462 5.064,118.674 5.401,118.784 5.584 C 119.670 7.051,120.097 7.790,120.195 8.025 C 120.259 8.177,120.701 8.923,121.177 9.684 C 121.654 10.444,122.130 11.258,122.234 11.492 C 122.339 11.725,122.704 12.344,123.045 12.867 C 123.387 13.390,123.667 13.886,123.667 13.970 C 123.667 14.053,123.807 14.301,123.978 14.519 C 124.149 14.738,124.492 15.292,124.740 15.750 C 124.988 16.208,125.420 16.958,125.699 17.417 C 125.978 17.875,126.460 18.711,126.769 19.274 C 127.079 19.837,127.595 20.688,127.916 21.165 C 128.237 21.643,128.500 22.133,128.500 22.255 C 128.500 22.377,128.602 22.578,128.726 22.702 C 128.850 22.826,129.282 23.510,129.684 24.221 C 130.087 24.932,130.567 25.767,130.750 26.076 C 131.223 26.874,131.857 28.018,132.069 28.457 C 132.169 28.663,132.306 28.831,132.375 28.832 C 132.444 28.833,132.500 28.936,132.500 29.061 C 132.500 29.186,132.639 29.467,132.808 29.686 C 132.978 29.904,133.313 30.439,133.554 30.873 C 134.615 32.788,135.568 34.433,136.096 35.259 C 136.410 35.749,136.667 36.191,136.667 36.239 C 136.667 36.338,137.505 37.764,138.095 38.667 C 138.304 38.987,138.668 39.617,138.904 40.066 C 139.140 40.515,139.400 40.965,139.481 41.066 C 139.563 41.167,140.380 42.563,141.297 44.167 C 142.213 45.771,143.121 47.346,143.314 47.667 C 143.506 47.987,143.713 48.362,143.774 48.500 C 143.834 48.637,143.985 48.868,144.108 49.013 C 144.232 49.157,144.506 49.607,144.718 50.013 C 145.229 50.993,145.983 52.318,146.321 52.833 C 146.472 53.063,146.705 53.475,146.839 53.750 C 146.973 54.025,147.132 54.288,147.191 54.333 C 147.251 54.379,147.543 54.867,147.840 55.417 C 148.137 55.967,148.464 56.529,148.566 56.667 C 148.669 56.804,148.900 57.217,149.080 57.583 C 149.260 57.950,149.592 58.550,149.819 58.917 C 150.045 59.283,150.449 59.990,150.716 60.487 C 150.983 60.985,151.306 61.496,151.434 61.624 C 151.562 61.752,151.667 61.919,151.667 61.995 C 151.667 62.071,151.967 62.626,152.333 63.230 C 152.700 63.833,153.000 64.360,153.000 64.400 C 153.000 64.441,153.375 65.078,153.833 65.817 C 154.292 66.556,154.667 67.237,154.667 67.330 C 154.667 67.424,154.734 67.500,154.815 67.500 C 154.897 67.500,155.086 67.781,155.235 68.125 C 155.384 68.469,155.693 69.050,155.921 69.417 C 156.149 69.783,156.602 70.571,156.926 71.167 C 157.875 72.911,158.076 73.247,158.208 73.306 C 158.277 73.336,158.333 73.437,158.333 73.530 C 158.333 73.623,158.472 73.898,158.641 74.141 C 158.810 74.384,159.228 75.108,159.571 75.750 C 159.913 76.392,160.300 77.035,160.430 77.180 C 160.560 77.325,160.667 77.487,160.667 77.542 C 160.667 77.596,161.027 78.265,161.467 79.029 C 161.907 79.792,162.323 80.529,162.390 80.667 C 162.458 80.804,162.604 81.067,162.715 81.251 C 162.826 81.435,163.216 82.110,163.581 82.751 C 163.947 83.392,164.337 84.067,164.450 84.250 C 164.562 84.433,164.749 84.771,164.865 85.000 C 164.981 85.229,165.116 85.454,165.163 85.500 C 165.273 85.605,165.733 86.407,166.120 87.167 C 166.283 87.487,166.458 87.787,166.508 87.833 C 166.619 87.935,167.281 89.075,168.009 90.421 C 168.306 90.969,168.810 91.867,169.130 92.417 C 169.901 93.742,170.295 94.429,170.798 95.333 C 171.028 95.746,171.434 96.402,171.700 96.792 C 171.965 97.181,172.132 97.500,172.071 97.500 C 172.009 97.500,172.051 97.611,172.164 97.746 C 172.276 97.882,172.592 98.425,172.867 98.955 C 173.141 99.484,173.415 99.954,173.475 100.000 C 173.534 100.046,173.776 100.458,174.011 100.917 C 174.884 102.620,177.061 106.419,177.195 106.472 C 177.271 106.503,177.333 106.599,177.333 106.686 C 177.333 106.773,177.645 107.385,178.026 108.047 C 178.406 108.709,178.859 109.513,179.031 109.833 C 179.203 110.154,179.485 110.642,179.659 110.917 C 179.832 111.192,180.250 111.942,180.588 112.583 C 180.927 113.225,181.251 113.787,181.310 113.833 C 181.369 113.879,181.688 114.442,182.020 115.083 C 182.643 116.287,183.496 117.842,185.586 121.583 C 187.079 124.256,189.096 128.052,190.605 131.030 C 191.008 131.825,191.595 132.931,191.910 133.488 C 192.224 134.045,192.430 134.501,192.366 134.503 C 192.302 134.504,192.329 134.560,192.426 134.628 C 192.523 134.695,192.753 135.050,192.938 135.417 C 193.366 136.267,194.031 137.454,195.863 140.641 C 196.672 142.048,197.333 143.267,197.333 143.349 C 197.333 143.432,197.407 143.500,197.497 143.500 C 197.587 143.500,197.707 143.687,197.765 143.917 C 197.822 144.146,197.928 144.333,197.999 144.333 C 198.070 144.333,198.173 144.465,198.227 144.625 C 198.282 144.785,198.572 145.338,198.872 145.853 C 200.254 148.230,200.864 149.269,201.009 149.500 C 201.096 149.637,201.235 149.900,201.317 150.083 C 201.399 150.267,201.666 150.708,201.910 151.064 C 202.154 151.419,202.555 152.080,202.802 152.531 C 203.484 153.779,203.563 153.914,204.019 154.606 C 204.866 155.892,205.418 156.754,205.500 156.917 C 205.591 157.099,207.834 160.479,208.044 160.750 C 208.115 160.842,208.638 161.554,209.206 162.333 C 209.775 163.112,210.298 163.775,210.370 163.806 C 210.441 163.836,210.500 163.967,210.500 164.097 C 210.500 164.227,210.558 164.333,210.628 164.333 C 210.698 164.333,210.867 164.511,211.003 164.728 C 211.285 165.180,212.401 166.549,212.958 167.126 C 213.165 167.340,213.335 167.568,213.337 167.633 C 213.339 167.697,213.752 168.200,214.254 168.750 C 215.597 170.221,215.654 170.284,217.089 171.917 C 220.135 175.382,226.429 181.420,230.000 184.303 C 230.688 184.858,231.512 185.532,231.833 185.801 C 232.154 186.069,233.279 186.934,234.333 187.724 C 235.387 188.513,236.325 189.217,236.417 189.288 C 237.211 189.901,237.827 190.333,237.904 190.333 C 237.955 190.333,238.428 190.661,238.956 191.061 C 239.976 191.834,243.468 194.139,244.167 194.501 C 244.396 194.620,244.621 194.764,244.667 194.822 C 244.713 194.880,245.313 195.256,246.000 195.657 C 246.688 196.059,247.588 196.591,248.000 196.841 C 249.377 197.673,252.394 199.275,254.500 200.293 C 257.605 201.794,259.836 202.833,259.956 202.833 C 260.014 202.833,260.366 202.974,260.739 203.147 C 261.412 203.458,261.891 203.640,262.127 203.676 C 262.195 203.687,262.334 203.765,262.437 203.851 C 262.659 204.034,265.505 205.166,265.749 205.168 C 265.841 205.168,266.116 205.273,266.359 205.399 C 266.602 205.526,267.090 205.719,267.442 205.828 C 267.795 205.936,268.196 206.068,268.333 206.121 C 268.471 206.174,268.658 206.236,268.750 206.260 C 268.842 206.284,269.367 206.458,269.917 206.646 C 273.252 207.788,279.411 209.556,280.750 209.756 C 280.933 209.783,281.083 209.818,281.083 209.832 C 281.083 209.847,281.196 209.884,281.333 209.916 C 281.471 209.947,282.108 210.096,282.750 210.247 C 286.278 211.076,293.855 212.331,296.833 212.579 C 299.524 212.803,300.188 212.863,300.917 212.949 C 301.970 213.072,375.343 213.279,378.192 213.167 L 380.301 213.083 379.903 212.417 C 379.684 212.050,379.329 211.412,379.113 211.000 C 378.685 210.183,377.966 208.876,376.989 207.136 C 376.644 206.524,376.314 205.867,376.254 205.678 C 376.193 205.488,376.074 205.333,375.989 205.333 C 375.903 205.333,375.833 205.253,375.833 205.156 C 375.833 205.009,374.546 202.559,373.999 201.667 C 373.724 201.216,371.682 197.519,371.054 196.333 C 370.836 195.921,370.441 195.208,370.177 194.750 C 369.913 194.292,369.503 193.542,369.266 193.083 C 369.030 192.625,368.699 192.025,368.531 191.750 C 368.362 191.475,367.828 190.500,367.343 189.583 C 366.858 188.667,366.404 187.842,366.333 187.750 C 366.262 187.658,365.886 186.983,365.499 186.250 C 364.459 184.284,363.807 183.106,363.648 182.904 C 363.571 182.805,363.172 182.084,362.763 181.301 C 362.353 180.518,361.865 179.623,361.679 179.314 C 361.493 179.004,361.079 178.239,360.758 177.614 C 360.437 176.990,360.024 176.268,359.841 176.011 C 359.658 175.754,359.430 175.365,359.335 175.147 C 359.239 174.929,358.989 174.450,358.779 174.083 C 358.394 173.411,357.631 172.050,356.862 170.667 C 356.633 170.254,356.297 169.654,356.117 169.333 C 355.936 169.012,355.446 168.112,355.029 167.333 C 354.611 166.554,354.064 165.579,353.812 165.167 C 353.561 164.754,353.118 163.967,352.828 163.417 C 352.538 162.867,352.124 162.117,351.909 161.750 C 351.694 161.383,351.386 160.821,351.226 160.500 C 351.065 160.179,350.855 159.862,350.759 159.794 C 350.662 159.727,350.651 159.671,350.734 159.669 C 350.817 159.668,350.780 159.535,350.651 159.375 C 350.411 159.076,350.225 158.764,349.588 157.590 C 349.387 157.220,349.060 156.635,348.861 156.292 C 348.663 155.948,348.339 155.385,348.143 155.042 C 347.946 154.698,347.568 154.042,347.303 153.583 C 347.038 153.125,346.732 152.563,346.622 152.333 C 346.513 152.104,346.384 151.879,346.337 151.833 C 346.247 151.747,346.018 151.332,345.050 149.500 C 344.735 148.904,344.099 147.779,343.638 147.000 C 343.176 146.221,342.592 145.208,342.338 144.750 C 341.391 143.036,340.937 142.234,340.593 141.667 C 340.398 141.346,340.144 140.896,340.029 140.667 C 339.914 140.438,339.600 139.875,339.331 139.417 C 339.062 138.958,338.713 138.321,338.555 138.000 C 338.397 137.679,338.226 137.379,338.175 137.333 C 338.125 137.287,337.978 137.064,337.850 136.837 C 337.721 136.610,337.053 135.447,336.364 134.254 C 334.060 130.262,333.553 129.377,333.435 129.146 C 333.370 129.020,333.152 128.644,332.950 128.310 C 332.749 127.976,332.026 126.738,331.345 125.560 C 330.663 124.381,329.923 123.173,329.700 122.875 C 329.476 122.577,329.338 122.333,329.392 122.333 C 329.486 122.333,328.852 121.298,328.502 120.882 C 328.409 120.771,328.329 120.621,328.324 120.549 C 328.319 120.476,327.875 119.704,327.336 118.833 C 326.462 117.421,323.639 112.781,323.127 111.917 C 323.019 111.733,322.695 111.208,322.407 110.750 C 322.119 110.292,321.671 109.543,321.412 109.086 C 321.152 108.629,320.876 108.179,320.797 108.086 C 320.718 107.993,319.860 106.642,318.891 105.083 C 317.921 103.525,317.005 102.054,316.856 101.814 C 316.706 101.574,316.286 100.861,315.922 100.230 C 315.558 99.599,314.977 98.633,314.631 98.083 C 314.286 97.533,313.774 96.671,313.496 96.167 C 313.217 95.662,312.822 94.971,312.619 94.629 C 311.745 93.160,310.598 91.194,310.209 90.500 C 309.978 90.087,309.733 89.675,309.665 89.583 C 309.598 89.492,309.277 88.929,308.954 88.333 C 308.122 86.801,306.873 84.614,306.716 84.416 C 306.643 84.324,306.328 83.761,306.016 83.166 C 305.704 82.570,305.264 81.840,305.038 81.542 C 304.812 81.244,304.666 81.000,304.714 81.000 C 304.762 81.000,304.489 80.518,304.109 79.929 C 303.728 79.340,303.117 78.359,302.750 77.749 C 302.383 77.139,302.008 76.552,301.917 76.443 C 301.825 76.334,301.300 75.574,300.750 74.753 C 300.200 73.933,299.313 72.659,298.779 71.922 C 298.245 71.186,297.657 70.340,297.471 70.042 C 297.286 69.744,297.066 69.500,296.984 69.500 C 296.901 69.500,296.833 69.422,296.833 69.326 C 296.833 69.231,296.759 69.062,296.668 68.951 C 296.230 68.417,294.456 66.220,294.281 65.995 C 293.463 64.941,292.711 64.031,292.424 63.746 C 292.237 63.561,291.786 63.036,291.423 62.580 C 290.809 61.809,290.059 60.964,288.970 59.817 C 288.725 59.558,288.458 59.228,288.377 59.084 C 288.019 58.444,277.598 47.860,274.428 44.917 C 273.441 44.000,272.423 43.048,272.165 42.802 C 271.737 42.392,267.304 38.589,266.565 37.998 C 266.392 37.859,265.785 37.389,265.218 36.954 C 264.650 36.518,264.086 36.069,263.965 35.956 C 263.844 35.843,263.259 35.380,262.665 34.927 C 262.071 34.474,261.510 34.045,261.418 33.972 C 260.713 33.419,258.967 32.167,258.901 32.167 C 258.856 32.167,258.729 32.092,258.618 32.001 C 257.471 31.058,256.946 30.667,256.829 30.667 C 256.753 30.667,256.591 30.570,256.470 30.452 C 256.349 30.334,255.950 30.057,255.583 29.836 C 255.217 29.615,254.879 29.389,254.833 29.333 C 254.633 29.091,252.718 27.833,252.548 27.833 C 252.445 27.833,252.336 27.769,252.306 27.691 C 252.275 27.613,251.425 27.040,250.417 26.417 C 247.861 24.839,247.933 24.881,247.769 24.871 C 247.687 24.866,247.575 24.791,247.519 24.703 C 247.463 24.616,246.982 24.291,246.451 23.981 C 244.560 22.877,243.907 22.504,243.167 22.107 C 242.754 21.885,241.929 21.433,241.333 21.101 C 240.737 20.770,239.688 20.218,239.000 19.874 C 238.313 19.531,237.713 19.212,237.667 19.167 C 237.523 19.023,230.914 15.833,230.760 15.833 C 230.714 15.833,230.243 15.640,229.713 15.404 C 229.183 15.168,228.487 14.860,228.167 14.719 C 227.846 14.579,227.366 14.359,227.099 14.232 C 226.833 14.104,226.492 14.000,226.341 14.000 C 226.190 14.000,225.995 13.932,225.908 13.850 C 225.821 13.767,224.701 13.274,223.418 12.755 C 222.135 12.235,220.860 11.712,220.585 11.592 C 219.875 11.281,215.693 9.667,215.599 9.667 C 215.557 9.667,215.311 9.581,215.053 9.475 C 213.870 8.993,212.351 8.469,211.667 8.306 C 211.254 8.208,210.842 8.071,210.750 8.002 C 210.552 7.852,208.727 7.203,208.250 7.113 C 208.067 7.078,207.804 7.012,207.667 6.965 C 206.795 6.670,206.113 6.468,205.773 6.406 C 205.558 6.367,205.052 6.216,204.649 6.069 C 204.246 5.923,203.354 5.659,202.667 5.482 C 200.943 5.040,200.807 5.007,200.333 4.918 C 200.104 4.874,199.654 4.758,199.333 4.660 C 199.012 4.561,198.563 4.443,198.333 4.397 C 198.104 4.351,197.167 4.133,196.250 3.913 C 195.333 3.693,193.958 3.397,193.194 3.257 C 192.429 3.116,191.752 2.969,191.688 2.930 C 191.624 2.891,191.200 2.816,190.745 2.763 C 190.289 2.711,189.542 2.595,189.083 2.505 C 187.490 2.192,187.238 2.149,185.167 1.841 C 184.021 1.671,182.521 1.482,181.833 1.422 C 181.146 1.361,180.471 1.282,180.333 1.245 C 180.196 1.209,179.558 1.136,178.917 1.084 C 177.424 0.963,176.388 0.860,175.720 0.767 C 175.428 0.727,174.041 0.649,172.637 0.594 C 171.232 0.539,169.183 0.448,168.083 0.392 C 163.441 0.153,115.667 -0.100,115.667 0.114 M95.135 36.875 C 95.019 37.081,94.831 37.400,94.717 37.583 C 94.603 37.767,94.413 38.104,94.294 38.333 C 94.176 38.563,93.884 39.051,93.646 39.419 C 93.407 39.787,92.996 40.491,92.731 40.984 C 92.466 41.477,92.175 42.001,92.083 42.149 C 91.992 42.297,91.623 42.943,91.264 43.584 C 90.906 44.225,90.562 44.788,90.500 44.833 C 90.439 44.879,90.143 45.404,89.843 46.000 C 89.542 46.596,89.155 47.282,88.982 47.526 C 88.808 47.769,88.667 48.050,88.667 48.151 C 88.667 48.251,88.592 48.333,88.500 48.333 C 88.408 48.333,88.333 48.396,88.333 48.473 C 88.333 48.625,86.843 51.329,86.558 51.694 C 86.462 51.817,86.204 52.254,85.984 52.667 C 85.763 53.079,85.490 53.516,85.375 53.637 C 85.260 53.758,85.167 53.925,85.167 54.009 C 85.167 54.092,84.903 54.572,84.581 55.076 C 84.258 55.580,83.921 56.163,83.831 56.371 C 83.741 56.580,83.574 56.897,83.459 57.077 C 83.016 57.771,82.423 58.787,81.948 59.667 C 81.676 60.171,81.368 60.696,81.263 60.833 C 81.158 60.971,80.895 61.421,80.678 61.833 C 80.461 62.246,80.190 62.696,80.074 62.833 C 79.959 62.971,79.629 63.533,79.341 64.083 C 79.053 64.633,78.287 65.983,77.638 67.083 C 76.990 68.183,76.272 69.421,76.042 69.833 C 75.813 70.246,75.269 71.183,74.834 71.917 C 73.193 74.682,68.601 82.633,67.952 83.833 C 67.580 84.520,67.176 85.181,67.054 85.303 C 66.933 85.424,66.833 85.592,66.833 85.675 C 66.833 85.759,66.571 86.237,66.250 86.739 C 65.929 87.240,65.667 87.687,65.667 87.732 C 65.667 87.777,65.254 88.491,64.750 89.319 C 64.246 90.146,63.833 90.901,63.833 90.995 C 63.833 91.089,63.775 91.167,63.703 91.167 C 63.632 91.167,63.481 91.373,63.368 91.625 C 63.255 91.877,62.900 92.533,62.579 93.083 C 62.257 93.633,61.943 94.196,61.881 94.333 C 61.818 94.471,61.703 94.658,61.626 94.750 C 61.549 94.842,60.655 96.379,59.640 98.167 C 58.626 99.954,57.701 101.529,57.585 101.667 C 57.470 101.804,57.122 102.404,56.813 103.000 C 56.503 103.596,56.194 104.108,56.125 104.139 C 56.056 104.169,56.000 104.262,56.000 104.344 C 56.000 104.427,55.700 104.984,55.333 105.583 C 54.967 106.182,54.667 106.717,54.667 106.770 C 54.667 106.824,54.442 107.202,54.167 107.609 C 53.892 108.017,53.667 108.450,53.667 108.571 C 53.667 108.693,53.557 108.883,53.424 108.994 C 53.290 109.105,52.775 109.920,52.280 110.806 C 51.784 111.692,51.227 112.679,51.042 113.000 C 48.637 117.177,47.838 118.545,47.703 118.714 C 47.614 118.826,47.240 119.479,46.870 120.167 C 46.133 121.540,45.090 123.322,44.872 123.583 C 44.796 123.675,44.679 123.892,44.612 124.066 C 44.546 124.240,44.006 125.189,43.412 126.174 C 42.819 127.159,42.333 128.048,42.333 128.149 C 42.333 128.250,42.263 128.333,42.178 128.333 C 42.092 128.333,41.977 128.476,41.922 128.650 C 41.820 128.972,40.298 131.602,40.024 131.929 C 39.942 132.028,39.823 132.271,39.759 132.470 C 39.696 132.669,39.530 132.946,39.391 133.086 C 39.251 133.226,39.122 133.435,39.105 133.550 C 39.088 133.666,38.926 133.984,38.746 134.256 C 38.252 134.999,38.036 135.358,37.695 136.000 C 37.524 136.321,36.839 137.521,36.171 138.667 C 35.504 139.813,34.768 141.087,34.536 141.500 C 34.304 141.912,33.938 142.530,33.724 142.872 C 33.509 143.214,33.333 143.531,33.333 143.577 C 33.333 143.654,32.206 145.590,31.825 146.167 C 31.735 146.304,31.567 146.604,31.453 146.833 C 31.339 147.063,30.872 147.874,30.415 148.637 C 29.335 150.439,29.408 150.313,28.265 152.338 C 27.723 153.298,27.029 154.471,26.723 154.945 C 26.417 155.419,26.167 155.854,26.167 155.911 C 26.167 155.969,25.906 156.424,25.587 156.922 C 25.268 157.421,24.777 158.261,24.496 158.789 C 23.806 160.086,23.435 160.733,23.325 160.833 C 23.217 160.932,20.822 165.190,20.466 165.917 C 20.331 166.192,20.057 166.704,19.856 167.055 C 19.352 167.935,18.323 169.989,18.360 170.041 C 18.377 170.064,18.190 170.401,17.945 170.788 C 17.700 171.176,17.500 171.526,17.500 171.566 C 17.500 171.605,17.134 172.413,16.688 173.361 C 15.917 174.996,15.558 175.780,14.797 177.500 C 14.614 177.912,14.239 178.737,13.964 179.333 C 13.689 179.929,13.332 180.792,13.171 181.250 C 13.010 181.708,12.613 182.727,12.288 183.513 C 11.963 184.300,11.599 185.275,11.480 185.680 C 11.360 186.085,11.170 186.599,11.056 186.821 C 10.943 187.044,10.888 187.288,10.935 187.363 C 10.982 187.438,10.949 187.500,10.863 187.500 C 10.777 187.500,10.610 187.856,10.492 188.292 C 10.255 189.168,10.261 189.148,10.123 189.500 C 9.796 190.336,9.257 191.890,8.995 192.750 C 8.828 193.300,8.612 193.975,8.515 194.250 C 8.226 195.073,7.554 197.313,7.090 199.000 C 6.851 199.871,6.588 200.771,6.506 201.000 C 6.424 201.229,6.158 202.167,5.915 203.083 C 5.671 204.000,5.368 205.125,5.242 205.583 C 4.552 208.080,3.384 213.215,3.082 215.083 C 3.052 215.267,3.016 215.417,3.002 215.417 C 2.987 215.417,2.943 215.604,2.905 215.833 C 2.866 216.063,2.651 217.225,2.427 218.417 C 2.064 220.351,1.715 222.483,1.568 223.667 C 1.539 223.896,1.395 224.983,1.248 226.083 C 1.100 227.183,0.951 228.383,0.916 228.750 C 0.497 233.127,0.328 235.052,0.221 236.667 C 0.053 239.177,0.047 253.372,0.212 255.833 C 0.380 258.331,0.501 259.907,0.598 260.827 C 0.641 261.236,0.713 262.174,0.757 262.910 C 0.849 264.428,0.890 264.881,1.148 267.333 C 1.250 268.296,1.370 269.496,1.414 270.000 C 1.459 270.504,1.530 271.179,1.573 271.500 C 1.615 271.821,1.774 273.058,1.925 274.250 C 2.224 276.606,2.218 276.561,2.582 278.750 C 2.719 279.575,2.872 280.512,2.921 280.833 C 2.971 281.154,3.196 282.317,3.422 283.417 C 3.648 284.517,3.871 285.604,3.918 285.833 C 3.998 286.229,4.576 288.775,4.787 289.667 C 4.841 289.896,4.903 290.158,4.924 290.250 C 4.967 290.435,5.958 294.131,6.175 294.917 C 6.733 296.930,7.338 298.997,7.493 299.417 C 7.594 299.692,8.007 300.929,8.410 302.167 C 9.139 304.402,10.345 307.822,10.968 309.417 C 11.147 309.875,11.567 310.962,11.901 311.833 C 12.591 313.630,12.974 314.533,14.072 316.953 C 14.498 317.889,14.962 318.939,15.103 319.286 C 15.752 320.872,23.053 335.653,23.544 336.375 C 23.716 336.627,23.808 336.833,23.750 336.833 C 23.692 336.833,23.787 337.040,23.962 337.292 C 24.137 337.544,24.498 338.200,24.765 338.750 C 25.032 339.300,25.325 339.805,25.417 339.872 C 25.508 339.940,25.515 339.996,25.433 339.997 C 25.350 339.999,25.395 340.131,25.533 340.292 C 25.671 340.452,25.895 340.808,26.029 341.083 C 26.421 341.885,27.655 344.156,28.355 345.362 C 28.710 345.974,29.000 346.509,29.000 346.551 C 29.000 346.593,29.607 347.667,30.349 348.939 C 31.091 350.210,31.928 351.662,32.210 352.167 C 32.491 352.671,32.859 353.308,33.026 353.583 C 33.193 353.858,33.382 354.196,33.445 354.333 C 33.508 354.471,33.619 354.624,33.692 354.674 C 33.765 354.724,33.995 355.069,34.204 355.441 C 35.005 356.871,36.055 358.612,36.518 359.277 C 36.783 359.659,37.000 360.021,37.000 360.081 C 37.000 360.141,37.094 360.290,37.208 360.412 C 37.323 360.534,37.754 361.177,38.167 361.841 C 39.392 363.812,41.561 367.061,41.833 367.333 C 41.879 367.379,41.992 367.542,42.083 367.696 C 42.175 367.850,42.657 368.562,43.155 369.280 C 43.653 369.997,44.215 370.824,44.405 371.118 C 44.956 371.972,45.064 371.898,46.174 369.917 C 46.379 369.550,46.668 369.052,46.815 368.810 C 46.963 368.567,47.533 367.605,48.083 366.670 C 49.047 365.033,51.387 361.115,52.018 360.083 C 52.186 359.808,52.439 359.358,52.580 359.083 C 52.851 358.553,53.199 357.963,54.208 356.325 C 54.552 355.766,54.833 355.240,54.833 355.155 C 54.833 355.070,54.908 355.000,55.000 355.000 C 55.092 355.000,55.167 354.864,55.167 354.698 C 55.167 354.532,55.317 354.235,55.500 354.038 C 55.683 353.842,55.833 353.646,55.833 353.604 C 55.833 353.561,56.196 352.939,56.639 352.222 C 57.082 351.504,57.671 350.504,57.948 350.000 C 58.225 349.496,58.680 348.708,58.960 348.250 C 59.239 347.792,59.991 346.517,60.632 345.417 C 61.775 343.453,62.423 342.341,65.830 336.500 C 66.766 334.896,67.599 333.433,67.682 333.250 C 67.849 332.881,68.202 332.296,68.337 332.167 C 68.384 332.121,68.514 331.896,68.624 331.667 C 68.735 331.438,69.054 330.875,69.334 330.417 C 69.614 329.958,69.924 329.377,70.021 329.125 C 70.119 328.873,70.271 328.667,70.359 328.667 C 70.448 328.667,70.477 328.597,70.424 328.512 C 70.371 328.426,70.402 328.310,70.493 328.254 C 70.584 328.198,70.788 327.874,70.946 327.535 C 71.105 327.195,71.545 326.392,71.924 325.750 C 72.303 325.108,73.240 323.458,74.007 322.083 C 74.774 320.708,75.442 319.546,75.492 319.500 C 75.542 319.454,75.700 319.191,75.843 318.917 C 76.506 317.642,77.431 316.005,77.940 315.205 C 78.248 314.722,78.500 314.293,78.500 314.251 C 78.500 314.209,79.074 313.180,79.776 311.963 C 80.478 310.746,81.256 309.375,81.506 308.917 C 81.980 308.045,82.747 306.688,84.315 303.951 C 84.829 303.053,85.373 302.093,85.524 301.819 C 85.674 301.545,85.983 301.041,86.209 300.699 C 86.435 300.357,86.826 299.666,87.076 299.163 C 87.829 297.653,88.046 297.254,88.161 297.167 C 88.286 297.071,88.873 296.039,89.963 294.000 C 90.380 293.221,90.775 292.546,90.841 292.500 C 90.907 292.454,91.222 291.923,91.542 291.320 C 91.861 290.716,92.263 290.007,92.436 289.744 C 92.609 289.480,92.900 288.981,93.083 288.635 C 93.267 288.289,93.904 287.162,94.500 286.130 C 95.096 285.099,95.676 284.066,95.789 283.836 C 95.901 283.605,96.068 283.304,96.159 283.167 C 96.551 282.573,97.667 280.653,97.667 280.572 C 97.667 280.524,97.929 280.074,98.250 279.572 C 98.571 279.071,98.838 278.605,98.843 278.538 C 98.849 278.471,99.261 277.742,99.758 276.917 C 100.256 276.092,100.795 275.154,100.957 274.833 C 101.118 274.512,101.291 274.212,101.342 274.167 C 101.461 274.059,101.984 273.175,102.674 271.917 C 102.975 271.367,103.354 270.692,103.516 270.417 C 103.678 270.142,104.013 269.542,104.260 269.083 C 104.507 268.625,104.952 267.875,105.249 267.417 C 105.546 266.958,106.012 266.171,106.285 265.667 C 106.558 265.162,107.023 264.337,107.320 263.833 C 107.616 263.329,107.923 262.804,108.002 262.667 C 108.081 262.529,108.693 261.484,109.364 260.344 C 110.035 259.204,110.681 258.079,110.801 257.844 C 111.129 257.199,111.986 255.696,112.911 254.141 C 113.366 253.376,113.882 252.487,114.057 252.167 C 114.231 251.846,114.703 251.041,115.104 250.378 C 115.505 249.715,115.833 249.096,115.833 249.003 C 115.833 248.910,115.908 248.833,116.000 248.833 C 116.092 248.833,116.167 248.726,116.167 248.595 C 116.167 248.464,116.282 248.242,116.423 248.101 C 116.563 247.960,116.662 247.824,116.641 247.798 C 116.621 247.771,116.721 247.563,116.863 247.333 C 117.558 246.214,118.833 244.028,118.833 243.957 C 118.833 243.913,119.331 243.023,119.938 241.980 C 120.546 240.937,121.251 239.708,121.504 239.250 C 121.758 238.792,122.367 237.715,122.857 236.857 C 123.348 235.999,123.904 235.024,124.093 234.690 C 124.281 234.357,124.628 233.746,124.864 233.333 C 126.889 229.785,128.387 227.079,129.336 225.250 C 129.954 224.058,130.742 222.558,131.086 221.917 C 131.849 220.496,135.461 213.366,135.501 213.201 C 135.517 213.136,135.688 212.746,135.881 212.333 C 136.074 211.921,136.217 211.527,136.199 211.458 C 136.181 211.390,136.242 211.333,136.333 211.333 C 136.425 211.333,136.500 211.245,136.500 211.136 C 136.500 211.027,136.643 210.634,136.817 210.261 C 136.991 209.888,137.264 209.283,137.422 208.917 C 137.581 208.550,137.846 207.950,138.012 207.583 C 138.354 206.826,139.468 203.901,140.171 201.917 C 140.430 201.183,140.790 200.171,140.969 199.667 C 141.149 199.162,141.462 198.188,141.664 197.500 C 141.867 196.813,142.099 196.063,142.180 195.833 C 142.381 195.266,143.560 190.929,143.921 189.429 C 144.640 186.438,145.857 180.347,146.071 178.667 C 146.112 178.346,146.222 177.483,146.316 176.750 C 146.409 176.017,146.531 175.004,146.587 174.500 C 146.643 173.996,146.716 173.396,146.750 173.167 C 146.874 172.329,147.128 169.206,147.252 167.000 C 147.324 165.715,147.329 155.472,147.258 154.750 C 147.231 154.475,147.158 153.425,147.095 152.417 C 147.032 151.408,146.947 150.358,146.907 150.083 C 146.867 149.808,146.797 149.171,146.752 148.667 C 146.608 147.056,146.521 146.269,146.405 145.500 C 146.342 145.087,146.273 144.487,146.251 144.167 C 146.229 143.846,146.156 143.183,146.088 142.694 C 146.020 142.205,145.943 141.605,145.917 141.361 C 145.891 141.117,145.784 140.317,145.680 139.583 C 145.576 138.850,145.451 137.800,145.403 137.250 C 145.355 136.700,145.248 135.987,145.166 135.667 C 145.084 135.346,144.974 134.708,144.923 134.250 C 144.872 133.792,144.756 133.042,144.664 132.583 C 144.573 132.125,144.380 131.150,144.235 130.417 C 144.091 129.683,143.941 128.952,143.903 128.792 C 143.865 128.631,143.804 128.368,143.767 128.208 C 143.731 128.047,143.605 127.578,143.487 127.166 C 143.370 126.754,143.263 126.379,143.251 126.333 C 142.958 125.243,142.029 122.255,141.825 121.750 C 141.750 121.567,141.604 121.117,141.500 120.750 C 141.396 120.383,141.244 119.933,141.164 119.750 C 140.995 119.367,140.078 116.759,139.743 115.709 C 139.618 115.320,139.410 114.758,139.279 114.459 C 138.533 112.756,138.202 111.854,138.290 111.766 C 138.344 111.711,138.307 111.667,138.208 111.667 C 138.108 111.667,137.975 111.432,137.912 111.144 C 137.849 110.857,137.499 109.976,137.135 109.186 C 136.771 108.396,136.322 107.412,136.137 107.000 C 135.400 105.356,134.794 104.055,134.508 103.500 C 134.343 103.179,133.551 101.642,132.748 100.083 C 131.945 98.525,131.204 97.138,131.102 97.000 C 131.000 96.862,130.835 96.600,130.735 96.417 C 130.069 95.194,129.614 94.394,129.505 94.250 C 129.376 94.081,128.857 93.161,127.952 91.500 C 127.678 90.996,127.351 90.465,127.227 90.320 C 127.102 90.175,127.000 90.004,127.000 89.940 C 127.000 89.875,126.561 89.093,126.024 88.203 C 125.487 87.312,124.764 86.058,124.417 85.417 C 124.070 84.775,123.684 84.132,123.560 83.987 C 123.435 83.842,123.333 83.668,123.333 83.600 C 123.333 83.532,123.124 83.163,122.869 82.780 C 122.614 82.397,122.258 81.783,122.078 81.417 C 121.898 81.050,121.626 80.560,121.473 80.327 C 121.319 80.094,120.952 79.456,120.657 78.910 C 120.362 78.364,120.037 77.804,119.935 77.667 C 119.833 77.529,119.649 77.238,119.526 77.019 C 119.403 76.800,119.170 76.386,119.009 76.099 C 118.847 75.811,118.207 74.715,117.586 73.663 C 115.633 70.354,115.388 69.935,114.962 69.167 C 114.078 67.569,112.423 64.737,111.749 63.667 C 111.547 63.346,111.165 62.708,110.901 62.250 C 110.637 61.792,110.345 61.286,110.252 61.126 C 110.159 60.967,109.605 60.067,109.020 59.126 C 108.436 58.186,107.566 56.742,107.088 55.917 C 106.609 55.092,105.909 53.929,105.531 53.333 C 105.153 52.737,104.529 51.688,104.144 51.000 C 103.759 50.313,103.231 49.436,102.972 49.053 C 102.712 48.670,102.500 48.319,102.500 48.274 C 102.500 48.175,101.300 46.121,101.172 46.000 C 101.052 45.887,100.772 45.413,100.237 44.417 C 99.991 43.958,99.587 43.283,99.339 42.917 C 99.092 42.550,98.841 42.137,98.782 42.000 C 98.722 41.862,98.487 41.450,98.260 41.083 C 97.883 40.476,96.734 38.498,95.929 37.070 C 95.552 36.401,95.419 36.368,95.135 36.875 M227.250 248.523 C 226.333 248.601,225.133 248.697,224.583 248.737 C 223.425 248.822,220.518 249.126,219.667 249.252 C 219.346 249.299,218.783 249.376,218.417 249.424 C 217.078 249.598,214.406 250.005,214.000 250.097 C 213.594 250.189,211.837 250.529,210.667 250.742 C 210.346 250.800,209.821 250.917,209.500 251.003 C 209.179 251.088,208.842 251.171,208.750 251.189 C 208.583 251.221,207.637 251.452,207.167 251.575 C 207.029 251.612,206.467 251.756,205.917 251.896 C 204.098 252.358,202.434 252.832,201.083 253.270 C 200.350 253.509,199.675 253.722,199.583 253.743 C 199.492 253.765,199.304 253.826,199.167 253.878 C 199.029 253.931,198.279 254.177,197.500 254.426 C 196.721 254.674,195.978 254.962,195.849 255.064 C 195.721 255.166,195.586 255.223,195.551 255.191 C 195.515 255.159,195.245 255.223,194.951 255.334 C 193.496 255.885,192.200 256.397,191.750 256.599 C 191.475 256.722,190.688 257.059,190.000 257.347 C 187.146 258.544,180.253 261.950,178.167 263.193 C 177.846 263.384,176.946 263.877,176.167 264.288 C 175.388 264.699,174.559 265.173,174.324 265.340 C 174.090 265.507,173.583 265.770,173.199 265.923 C 172.814 266.077,172.500 266.255,172.500 266.319 C 172.500 266.382,172.106 266.647,171.625 266.907 C 171.144 267.166,170.313 267.669,169.780 268.023 C 169.246 268.377,168.782 268.667,168.749 268.667 C 168.715 268.667,167.952 269.168,167.052 269.781 C 166.153 270.394,165.078 271.126,164.664 271.406 C 163.939 271.898,161.338 273.826,161.167 273.999 C 161.121 274.045,160.596 274.458,160.001 274.917 C 159.406 275.375,158.801 275.862,158.656 276.000 C 158.511 276.137,158.107 276.475,157.758 276.750 C 157.168 277.214,155.662 278.498,155.228 278.906 C 155.124 279.004,154.413 279.646,153.648 280.333 C 151.759 282.030,146.720 287.076,145.083 288.911 C 142.811 291.458,142.253 292.080,142.167 292.167 C 142.121 292.212,141.786 292.625,141.422 293.083 C 141.059 293.542,140.721 293.954,140.672 294.000 C 140.492 294.168,138.687 296.451,137.773 297.667 C 137.256 298.354,136.775 298.992,136.705 299.083 C 136.175 299.776,134.286 302.436,133.746 303.250 C 133.382 303.800,133.043 304.287,132.994 304.333 C 132.839 304.478,130.667 307.830,130.667 307.924 C 130.667 307.974,130.587 308.105,130.490 308.215 C 130.298 308.434,129.836 309.178,127.982 312.250 C 127.318 313.350,126.732 314.287,126.679 314.333 C 126.547 314.448,126.237 314.958,125.816 315.750 C 125.622 316.117,124.994 317.204,124.420 318.167 C 122.449 321.476,121.639 322.864,121.129 323.806 C 120.848 324.325,120.561 324.825,120.491 324.917 C 120.421 325.008,120.106 325.571,119.792 326.167 C 119.478 326.762,119.046 327.550,118.831 327.917 C 118.268 328.878,116.372 332.386,115.677 333.750 C 115.351 334.392,115.043 334.954,114.993 335.000 C 114.943 335.046,114.430 336.021,113.854 337.167 C 113.277 338.313,112.563 339.700,112.268 340.250 C 109.572 345.269,108.143 347.891,108.000 348.083 C 107.931 348.175,107.614 348.738,107.294 349.333 C 106.594 350.636,106.245 351.261,105.057 353.333 C 104.558 354.204,104.072 355.058,103.976 355.231 C 103.401 356.270,103.003 356.967,101.916 358.833 C 101.249 359.979,100.564 361.154,100.394 361.443 C 100.223 361.733,99.830 362.408,99.520 362.943 C 99.210 363.479,98.713 364.292,98.415 364.750 C 98.118 365.208,97.669 365.958,97.418 366.417 C 97.167 366.875,96.830 367.438,96.670 367.667 C 96.510 367.896,96.080 368.608,95.716 369.250 C 95.351 369.892,94.817 370.811,94.530 371.293 L 94.008 372.168 170.379 372.149 L 246.750 372.129 250.333 371.653 C 252.304 371.390,254.329 371.099,254.833 371.006 C 255.338 370.912,256.087 370.794,256.500 370.743 C 257.234 370.653,257.658 370.582,258.500 370.409 C 260.049 370.089,260.545 369.984,261.583 369.751 C 262.225 369.607,263.087 369.420,263.500 369.335 C 264.210 369.190,266.794 368.580,267.333 368.430 C 267.471 368.392,267.958 368.278,268.417 368.177 C 268.875 368.075,269.662 367.875,270.167 367.732 C 272.435 367.088,273.379 366.827,275.250 366.330 C 276.350 366.038,277.362 365.757,277.500 365.705 C 277.637 365.654,277.787 365.603,277.833 365.591 C 277.879 365.579,278.292 365.450,278.750 365.303 C 280.106 364.870,282.022 364.301,282.227 364.270 C 282.331 364.255,282.642 364.160,282.917 364.059 C 283.192 363.958,283.979 363.705,284.667 363.496 C 285.354 363.287,285.992 363.073,286.083 363.019 C 286.175 362.966,286.287 362.914,286.333 362.905 C 286.379 362.896,286.529 362.843,286.667 362.787 C 286.804 362.732,287.629 362.450,288.500 362.160 C 289.371 361.870,290.308 361.535,290.583 361.415 C 290.858 361.295,291.833 360.916,292.750 360.573 C 293.667 360.230,294.492 359.898,294.583 359.836 C 294.675 359.775,295.125 359.588,295.583 359.422 C 296.042 359.256,296.498 359.056,296.598 358.979 C 296.697 358.901,297.084 358.730,297.456 358.599 C 298.225 358.328,299.073 357.940,302.500 356.291 C 307.273 353.996,307.759 353.755,308.375 353.378 C 308.719 353.168,309.000 353.039,309.000 353.093 C 309.000 353.146,309.218 353.034,309.484 352.845 C 309.750 352.655,310.009 352.500,310.059 352.500 C 310.109 352.500,310.933 352.050,311.890 351.500 C 312.846 350.950,313.671 350.500,313.721 350.500 C 313.772 350.500,314.511 350.066,315.365 349.536 C 316.218 349.005,317.554 348.206,318.333 347.760 C 319.112 347.314,319.775 346.886,319.806 346.808 C 319.836 346.730,319.942 346.667,320.040 346.667 C 320.138 346.667,320.464 346.479,320.765 346.250 C 321.065 346.021,321.365 345.833,321.431 345.833 C 321.498 345.833,321.798 345.646,322.098 345.417 C 322.399 345.188,322.677 345.000,322.717 345.000 C 322.797 345.000,324.840 343.653,325.500 343.165 C 325.729 342.996,326.292 342.603,326.750 342.293 C 328.595 341.043,329.161 340.641,331.000 339.275 C 334.208 336.891,335.001 336.287,336.177 335.333 C 336.799 334.829,337.887 333.967,338.596 333.417 C 339.305 332.867,340.136 332.166,340.443 331.861 C 340.749 331.555,341.000 331.349,341.000 331.402 C 341.000 331.514,341.289 331.282,342.299 330.359 C 342.692 329.999,343.437 329.340,343.954 328.894 C 345.952 327.169,347.379 325.806,350.917 322.237 C 354.597 318.524,355.270 317.803,357.917 314.735 C 358.375 314.203,358.863 313.649,359.000 313.504 C 359.137 313.358,359.472 312.941,359.743 312.578 C 360.014 312.214,360.321 311.842,360.425 311.750 C 360.583 311.611,361.205 310.840,363.448 308.001 C 364.475 306.702,365.813 304.975,366.083 304.600 C 366.267 304.346,366.792 303.634,367.250 303.018 C 367.708 302.402,368.233 301.686,368.417 301.427 C 368.600 301.167,368.975 300.646,369.250 300.269 C 369.525 299.892,369.951 299.283,370.196 298.917 C 370.441 298.550,371.094 297.612,371.646 296.833 C 372.199 296.054,372.895 295.006,373.192 294.504 C 373.490 294.003,373.829 293.478,373.945 293.338 C 374.062 293.198,374.568 292.446,375.069 291.667 C 375.571 290.887,376.061 290.159,376.157 290.049 C 376.254 289.938,376.333 289.804,376.333 289.750 C 376.333 289.697,376.472 289.450,376.641 289.202 C 377.101 288.525,378.484 286.208,379.049 285.167 C 379.323 284.662,379.637 284.137,379.748 284.000 C 379.859 283.862,379.999 283.637,380.060 283.500 C 380.121 283.362,380.320 283.025,380.503 282.750 C 380.686 282.475,380.996 281.912,381.191 281.500 C 381.387 281.087,381.594 280.712,381.652 280.667 C 381.710 280.621,381.849 280.396,381.961 280.167 C 382.073 279.938,382.298 279.525,382.461 279.250 C 383.750 277.075,384.040 276.567,384.255 276.107 C 384.389 275.819,384.650 275.358,384.833 275.083 C 385.017 274.808,385.284 274.331,385.428 274.022 C 385.571 273.713,386.055 272.867,386.505 272.143 C 386.954 271.419,387.334 270.771,387.349 270.705 C 387.425 270.362,387.623 269.988,388.249 269.000 C 388.627 268.404,389.105 267.566,389.310 267.138 C 389.515 266.710,389.791 266.271,389.923 266.161 C 390.055 266.052,390.125 265.901,390.079 265.826 C 390.032 265.751,390.063 265.648,390.146 265.596 C 390.229 265.545,390.501 265.108,390.751 264.626 C 391.001 264.144,391.278 263.659,391.367 263.549 C 391.457 263.438,391.794 262.838,392.118 262.215 C 392.442 261.593,392.792 261.028,392.895 260.961 C 392.999 260.894,393.022 260.837,392.947 260.836 C 392.872 260.834,392.956 260.627,393.133 260.375 C 393.310 260.123,393.774 259.317,394.163 258.583 C 394.553 257.850,395.117 256.875,395.416 256.417 C 395.985 255.547,396.624 254.440,397.293 253.167 C 397.510 252.754,397.822 252.192,397.987 251.917 C 398.323 251.356,398.828 250.474,399.349 249.542 C 399.541 249.198,399.766 248.845,399.849 248.758 C 399.932 248.671,400.000 248.540,400.000 248.466 C 400.000 248.287,229.380 248.344,227.250 248.523 " stroke="none" fill="#e42c34" fill-rule="evenodd"></path><path id="path1" d="" stroke="none" fill="#e42c3c" fill-rule="evenodd"></path><path id="path2" d="M136.375 0.119 C 136.627 0.158,137.040 0.158,137.292 0.119 C 137.544 0.081,137.337 0.050,136.833 0.050 C 136.329 0.050,136.123 0.081,136.375 0.119 M143.377 0.120 C 143.631 0.158,144.006 0.157,144.211 0.117 C 144.416 0.078,144.208 0.046,143.750 0.048 C 143.292 0.049,143.124 0.081,143.377 0.120 M146.880 0.123 C 147.318 0.157,147.993 0.157,148.380 0.122 C 148.767 0.087,148.408 0.059,147.583 0.059 C 146.758 0.060,146.442 0.088,146.880 0.123 M157.042 0.282 C 157.202 0.323,157.465 0.323,157.625 0.282 C 157.785 0.240,157.654 0.205,157.333 0.205 C 157.012 0.205,156.881 0.240,157.042 0.282 M159.375 0.282 C 159.535 0.323,159.798 0.323,159.958 0.282 C 160.119 0.240,159.987 0.205,159.667 0.205 C 159.346 0.205,159.215 0.240,159.375 0.282 M168.627 0.451 C 168.834 0.491,169.134 0.490,169.294 0.448 C 169.453 0.406,169.283 0.374,168.917 0.375 C 168.550 0.377,168.420 0.411,168.627 0.451 M264.333 36.219 C 264.333 36.260,264.609 36.504,264.945 36.760 C 265.282 37.017,265.504 37.142,265.440 37.038 C 265.308 36.825,264.333 36.103,264.333 36.219 M313.750 96.667 C 313.892 96.942,314.046 97.167,314.092 97.167 C 314.138 97.167,314.059 96.942,313.917 96.667 C 313.774 96.392,313.621 96.167,313.575 96.167 C 313.529 96.167,313.608 96.392,313.750 96.667 M147.381 159.083 C 147.382 159.542,147.415 159.709,147.453 159.456 C 147.491 159.203,147.490 158.828,147.451 158.623 C 147.411 158.418,147.380 158.625,147.381 159.083 M147.396 161.833 C 147.396 162.887,147.423 163.319,147.456 162.792 C 147.490 162.265,147.490 161.402,147.456 160.875 C 147.423 160.348,147.396 160.779,147.396 161.833 M304.460 213.118 C 304.668 213.158,304.968 213.156,305.127 213.115 C 305.286 213.073,305.117 213.040,304.750 213.042 C 304.383 213.044,304.253 213.078,304.460 213.118 M335.052 213.291 C 336.593 213.319,339.068 213.319,340.552 213.291 C 342.036 213.264,340.775 213.241,337.750 213.241 C 334.725 213.241,333.511 213.264,335.052 213.291 M346.052 213.291 C 347.593 213.319,350.068 213.319,351.552 213.291 C 353.036 213.264,351.775 213.241,348.750 213.241 C 345.725 213.241,344.511 213.264,346.052 213.291 M357.052 213.291 C 358.593 213.319,361.068 213.319,362.552 213.291 C 364.036 213.264,362.775 213.241,359.750 213.241 C 356.725 213.241,355.511 213.264,357.052 213.291 M394.917 257.167 C 394.774 257.442,394.696 257.667,394.741 257.667 C 394.787 257.667,394.941 257.442,395.083 257.167 C 395.226 256.892,395.304 256.667,395.259 256.667 C 395.213 256.667,395.059 256.892,394.917 257.167 M387.756 269.764 C 387.600 270.002,387.502 270.224,387.537 270.259 C 387.572 270.294,387.732 270.100,387.893 269.828 C 388.252 269.220,388.145 269.170,387.756 269.764 M119.583 326.333 C 119.441 326.608,119.362 326.833,119.408 326.833 C 119.454 326.833,119.608 326.608,119.750 326.333 C 119.892 326.058,119.971 325.833,119.925 325.833 C 119.879 325.833,119.726 326.058,119.583 326.333 " stroke="none" fill="#dc2c34" fill-rule="evenodd"></path><path id="path3" d="M367.886 213.291 C 369.427 213.319,371.902 213.319,373.386 213.291 C 374.869 213.264,373.608 213.241,370.583 213.241 C 367.558 213.241,366.344 213.264,367.886 213.291 M377.125 213.290 C 377.698 213.323,378.635 213.323,379.208 213.290 C 379.781 213.258,379.313 213.231,378.167 213.231 C 377.021 213.231,376.552 213.258,377.125 213.290 " stroke="none" fill="#e82c34" fill-rule="evenodd"></path><path id="path4" d="M367.886 213.291 C 369.427 213.319,371.902 213.319,373.386 213.291 C 374.869 213.264,373.608 213.241,370.583 213.241 C 367.558 213.241,366.344 213.264,367.886 213.291 M377.125 213.290 C 377.698 213.323,378.635 213.323,379.208 213.290 C 379.781 213.258,379.313 213.231,378.167 213.231 C 377.021 213.231,376.552 213.258,377.125 213.290 " stroke="none" fill="#e82c34" fill-rule="evenodd"></path><path id="path5" d="M367.886 213.291 C 369.427 213.319,371.902 213.319,373.386 213.291 C 374.869 213.264,373.608 213.241,370.583 213.241 C 367.558 213.241,366.344 213.264,367.886 213.291 M377.125 213.290 C 377.698 213.323,378.635 213.323,379.208 213.290 C 379.781 213.258,379.313 213.231,378.167 213.231 C 377.021 213.231,376.552 213.258,377.125 213.290 " stroke="none" fill="#e82c34" fill-rule="evenodd"></path><path id="path6" d="M367.886 213.291 C 369.427 213.319,371.902 213.319,373.386 213.291 C 374.869 213.264,373.608 213.241,370.583 213.241 C 367.558 213.241,366.344 213.264,367.886 213.291 M377.125 213.290 C 377.698 213.323,378.635 213.323,379.208 213.290 C 379.781 213.258,379.313 213.231,378.167 213.231 C 377.021 213.231,376.552 213.258,377.125 213.290 " stroke="none" fill="#e82c34" fill-rule="evenodd"></path><path id="path7" d="M367.886 213.291 C 369.427 213.319,371.902 213.319,373.386 213.291 C 374.869 213.264,373.608 213.241,370.583 213.241 C 367.558 213.241,366.344 213.264,367.886 213.291 M377.125 213.290 C 377.698 213.323,378.635 213.323,379.208 213.290 C 379.781 213.258,379.313 213.231,378.167 213.231 C 377.021 213.231,376.552 213.258,377.125 213.290 " stroke="none" fill="#e82c34" fill-rule="evenodd"></path></g></svg>